<?xml version="1.0" encoding="UTF-8" standalone="no"?>
<!DOCTYPE svg PUBLIC "-//W3C//DTD SVG 1.1//EN"
 "http://www.w3.org/Graphics/SVG/1.1/DTD/svg11.dtd">
<!-- Generated by graphviz version 2.47.0 (20210316.0004)
 -->
<!-- Title: models_diagram Pages: 1 -->
<svg width="2566pt" height="538pt"
 viewBox="0.00 0.00 2566.04 538.00" xmlns="http://www.w3.org/2000/svg" xmlns:xlink="http://www.w3.org/1999/xlink">
<g id="graph0" class="graph" transform="scale(1 1) rotate(0) translate(4 534)">
<title>models_diagram</title>
<polygon fill="transparent" stroke="transparent" points="-4,4 -4,-534 2562.04,-534 2562.04,4 -4,4"/>
<!-- _diagram_info -->
<g id="node1" class="node">
<title>_diagram_info</title>
<text text-anchor="start" x="75.84" y="-515.6" font-family="Times New Roman,serif" font-size="13.00">Models diagram</text>
<text text-anchor="start" x="75.84" y="-501.6" font-family="Times New Roman,serif" font-size="13.00">Date: Apr 08 2021 &#45; 11:39</text>
<text text-anchor="start" x="75.84" y="-487.6" font-family="Times New Roman,serif" font-size="13.00">Migration version: 20210329180855</text>
<text text-anchor="start" x="75.84" y="-473.6" font-family="Times New Roman,serif" font-size="13.00">Generated by RailRoady 1.5.3</text>
<text text-anchor="start" x="75.84" y="-459.6" font-family="Times New Roman,serif" font-size="13.00">http://railroady.prestonlee.com</text>
</g>
<!-- Account -->
<g id="node2" class="node">
<title>Account</title>
<ellipse fill="none" stroke="black" cx="322.34" cy="-397" rx="42.49" ry="18"/>
<text text-anchor="middle" x="322.34" y="-393.3" font-family="Times New Roman,serif" font-size="14.00">Account</text>
</g>
<!-- People -->
<g id="node38" class="node">
<title>People</title>
<ellipse fill="none" stroke="black" cx="389.34" cy="-310" rx="36" ry="18"/>
<text text-anchor="middle" x="389.34" y="-306.3" font-family="Times New Roman,serif" font-size="14.00">People</text>
</g>
<!-- Account&#45;&gt;People -->
<g id="edge1" class="edge">
<title>Account&#45;&gt;People</title>
<path fill="none" stroke="#fb17df" d="M340.29,-373.23C349.99,-360.93 361.92,-345.79 371.58,-333.53"/>
<ellipse fill="none" stroke="#fb17df" cx="337.74" cy="-376.47" rx="4" ry="4"/>
<ellipse fill="#fb17df" stroke="#fb17df" cx="374.21" cy="-330.19" rx="4" ry="4"/>
<text text-anchor="middle" x="379.34" y="-349.8" font-family="Times New Roman,serif" font-size="14.00">people</text>
</g>
<!-- Address -->
<g id="node3" class="node">
<title>Address</title>
<ellipse fill="none" stroke="black" cx="1478.34" cy="-310" rx="41.69" ry="18"/>
<text text-anchor="middle" x="1478.34" y="-306.3" font-family="Times New Roman,serif" font-size="14.00">Address</text>
</g>
<!-- AddressesPerson -->
<g id="node6" class="node">
<title>AddressesPerson</title>
<ellipse fill="none" stroke="black" cx="1478.34" cy="-237" rx="74.99" ry="18"/>
<text text-anchor="middle" x="1478.34" y="-233.3" font-family="Times New Roman,serif" font-size="14.00">AddressesPerson</text>
</g>
<!-- Address&#45;&gt;AddressesPerson -->
<g id="edge2" class="edge">
<title>Address&#45;&gt;AddressesPerson</title>
<path fill="none" stroke="#1b8fc7" d="M1478.34,-283.79C1478.34,-277.83 1478.34,-271.45 1478.34,-265.4"/>
<ellipse fill="none" stroke="#1b8fc7" cx="1478.34" cy="-287.81" rx="4" ry="4"/>
<polygon fill="#1b8fc7" stroke="#1b8fc7" points="1478.34,-265.03 1482.84,-255.03 1478.34,-260.03 1478.34,-255.03 1478.34,-255.03 1478.34,-255.03 1478.34,-260.03 1473.84,-255.03 1478.34,-265.03 1478.34,-265.03"/>
</g>
<!-- AddressesInterpret -->
<g id="node4" class="node">
<title>AddressesInterpret</title>
<ellipse fill="none" stroke="black" cx="1338.34" cy="-310" rx="79.89" ry="18"/>
<text text-anchor="middle" x="1338.34" y="-306.3" font-family="Times New Roman,serif" font-size="14.00">AddressesInterpret</text>
</g>
<!-- AddressesPartner -->
<g id="node5" class="node">
<title>AddressesPartner</title>
<ellipse fill="none" stroke="black" cx="1813.34" cy="-310" rx="75.29" ry="18"/>
<text text-anchor="middle" x="1813.34" y="-306.3" font-family="Times New Roman,serif" font-size="14.00">AddressesPartner</text>
</g>
<!-- AllergiesHistoric -->
<g id="node7" class="node">
<title>AllergiesHistoric</title>
<ellipse fill="none" stroke="black" cx="1143.34" cy="-91" rx="70.69" ry="18"/>
<text text-anchor="middle" x="1143.34" y="-87.3" font-family="Times New Roman,serif" font-size="14.00">AllergiesHistoric</text>
</g>
<!-- Allergy -->
<g id="node8" class="node">
<title>Allergy</title>
<ellipse fill="none" stroke="black" cx="803.34" cy="-237" rx="36.29" ry="18"/>
<text text-anchor="middle" x="803.34" y="-233.3" font-family="Times New Roman,serif" font-size="14.00">Allergy</text>
</g>
<!-- Allergy&#45;&gt;AllergiesHistoric -->
<g id="edge3" class="edge">
<title>Allergy&#45;&gt;AllergiesHistoric</title>
<path fill="none" stroke="#022795" d="M839.01,-222.3C902.03,-198.02 1030.53,-148.1 1074.34,-128 1084.78,-123.21 1095.89,-117.64 1106.08,-112.32"/>
<ellipse fill="none" stroke="#022795" cx="835.03" cy="-223.84" rx="4" ry="4"/>
<polygon fill="#022795" stroke="#022795" points="1106.29,-112.21 1117.23,-111.53 1110.71,-109.88 1115.13,-107.55 1115.13,-107.55 1115.13,-107.55 1110.71,-109.88 1113.03,-103.57 1106.29,-112.21 1106.29,-112.21"/>
</g>
<!-- PathologicalsHistoric -->
<g id="node36" class="node">
<title>PathologicalsHistoric</title>
<ellipse fill="none" stroke="black" cx="803.34" cy="-164" rx="87.99" ry="18"/>
<text text-anchor="middle" x="803.34" y="-160.3" font-family="Times New Roman,serif" font-size="14.00">PathologicalsHistoric</text>
</g>
<!-- Allergy&#45;&gt;PathologicalsHistoric -->
<g id="edge4" class="edge">
<title>Allergy&#45;&gt;PathologicalsHistoric</title>
<path fill="none" stroke="#43d1cc" d="M803.34,-208.75C803.34,-203.28 803.34,-197.52 803.34,-192.05"/>
<polygon fill="#43d1cc" stroke="#43d1cc" points="803.34,-208.81 798.84,-218.81 803.34,-213.81 803.34,-218.81 803.34,-218.81 803.34,-218.81 803.34,-213.81 807.84,-218.81 803.34,-208.81 803.34,-208.81"/>
<polygon fill="#43d1cc" stroke="#43d1cc" points="803.34,-192.03 807.84,-182.03 803.34,-187.03 803.34,-182.03 803.34,-182.03 803.34,-182.03 803.34,-187.03 798.84,-182.03 803.34,-192.03 803.34,-192.03"/>
</g>
<!-- ApplicationRecord -->
<g id="node9" class="node">
<title>ApplicationRecord</title>
<ellipse fill="none" stroke="black" cx="1133.34" cy="-491" rx="79.89" ry="18"/>
<text text-anchor="middle" x="1133.34" y="-487.3" font-family="Times New Roman,serif" font-size="14.00">ApplicationRecord</text>
</g>
<!-- Assistant -->
<g id="node10" class="node">
<title>Assistant</title>
<ellipse fill="none" stroke="black" cx="245.34" cy="-237" rx="44.39" ry="18"/>
<text text-anchor="middle" x="245.34" y="-233.3" font-family="Times New Roman,serif" font-size="14.00">Assistant</text>
</g>
<!-- Attachment -->
<g id="node11" class="node">
<title>Attachment</title>
<ellipse fill="none" stroke="black" cx="1946.34" cy="-491" rx="51.99" ry="18"/>
<text text-anchor="middle" x="1946.34" y="-487.3" font-family="Times New Roman,serif" font-size="14.00">Attachment</text>
</g>
<!-- AttachmentsPerson -->
<g id="node12" class="node">
<title>AttachmentsPerson</title>
<ellipse fill="none" stroke="black" cx="2084.34" cy="-397" rx="81.49" ry="18"/>
<text text-anchor="middle" x="2084.34" y="-393.3" font-family="Times New Roman,serif" font-size="14.00">AttachmentsPerson</text>
</g>
<!-- Attachment&#45;&gt;AttachmentsPerson -->
<g id="edge5" class="edge">
<title>Attachment&#45;&gt;AttachmentsPerson</title>
<path fill="none" stroke="#5c8f71" d="M1975.88,-470.31C1998.01,-455.56 2028.3,-435.36 2051.25,-420.06"/>
<ellipse fill="none" stroke="#5c8f71" cx="1972.46" cy="-472.59" rx="4" ry="4"/>
<polygon fill="#5c8f71" stroke="#5c8f71" points="2051.33,-420 2062.15,-418.2 2055.5,-417.23 2059.66,-414.46 2059.66,-414.46 2059.66,-414.46 2055.5,-417.23 2057.16,-410.71 2051.33,-420 2051.33,-420"/>
</g>
<!-- Person -->
<g id="node55" class="node">
<title>Person</title>
<ellipse fill="none" stroke="black" cx="1946.34" cy="-397" rx="36.29" ry="18"/>
<text text-anchor="middle" x="1946.34" y="-393.3" font-family="Times New Roman,serif" font-size="14.00">Person</text>
</g>
<!-- Attachment&#45;&gt;Person -->
<g id="edge6" class="edge">
<title>Attachment&#45;&gt;Person</title>
<path fill="none" stroke="#b28fa4" d="M1946.34,-462.69C1946.34,-450.92 1946.34,-437.17 1946.34,-425.39"/>
<polygon fill="#b28fa4" stroke="#b28fa4" points="1946.34,-462.7 1941.84,-472.7 1946.34,-467.7 1946.34,-472.7 1946.34,-472.7 1946.34,-472.7 1946.34,-467.7 1950.84,-472.7 1946.34,-462.7 1946.34,-462.7"/>
<polygon fill="#b28fa4" stroke="#b28fa4" points="1946.34,-425.23 1950.84,-415.23 1946.34,-420.23 1946.34,-415.23 1946.34,-415.23 1946.34,-415.23 1946.34,-420.23 1941.84,-415.23 1946.34,-425.23 1946.34,-425.23"/>
</g>
<!-- AttachmentType -->
<g id="node13" class="node">
<title>AttachmentType</title>
<ellipse fill="none" stroke="black" cx="2087.34" cy="-491" rx="71.49" ry="18"/>
<text text-anchor="middle" x="2087.34" y="-487.3" font-family="Times New Roman,serif" font-size="14.00">AttachmentType</text>
</g>
<!-- AttachmentType&#45;&gt;AttachmentsPerson -->
<g id="edge7" class="edge">
<title>AttachmentType&#45;&gt;AttachmentsPerson</title>
<path fill="none" stroke="#f376fb" d="M2086.51,-464.45C2086.09,-451.7 2085.59,-436.32 2085.18,-423.57"/>
<ellipse fill="none" stroke="#f376fb" cx="2086.65" cy="-468.7" rx="4" ry="4"/>
<ellipse fill="#f376fb" stroke="#f376fb" cx="2085.03" cy="-419.22" rx="4" ry="4"/>
</g>
<!-- Diagnostic -->
<g id="node14" class="node">
<title>Diagnostic</title>
<ellipse fill="none" stroke="black" cx="296.34" cy="-164" rx="49.29" ry="18"/>
<text text-anchor="middle" x="296.34" y="-160.3" font-family="Times New Roman,serif" font-size="14.00">Diagnostic</text>
</g>
<!-- DiagnosticsSoap -->
<g id="node15" class="node">
<title>DiagnosticsSoap</title>
<ellipse fill="none" stroke="black" cx="194.34" cy="-18" rx="72.29" ry="18"/>
<text text-anchor="middle" x="194.34" y="-14.3" font-family="Times New Roman,serif" font-size="14.00">DiagnosticsSoap</text>
</g>
<!-- Diagnostic&#45;&gt;DiagnosticsSoap -->
<g id="edge8" class="edge">
<title>Diagnostic&#45;&gt;DiagnosticsSoap</title>
<path fill="none" stroke="#265bab" d="M279.98,-139.9C261.38,-113.64 231.13,-70.94 212.01,-43.94"/>
<ellipse fill="none" stroke="#265bab" cx="282.33" cy="-143.22" rx="4" ry="4"/>
<polygon fill="#265bab" stroke="#265bab" points="212,-43.93 209.89,-33.17 209.11,-39.85 206.22,-35.77 206.22,-35.77 206.22,-35.77 209.11,-39.85 202.55,-38.37 212,-43.93 212,-43.93"/>
</g>
<!-- Soap -->
<g id="node46" class="node">
<title>Soap</title>
<ellipse fill="none" stroke="black" cx="410.34" cy="-91" rx="29.8" ry="18"/>
<text text-anchor="middle" x="410.34" y="-87.3" font-family="Times New Roman,serif" font-size="14.00">Soap</text>
</g>
<!-- Diagnostic&#45;&gt;Soap -->
<g id="edge9" class="edge">
<title>Diagnostic&#45;&gt;Soap</title>
<path fill="none" stroke="#8df407" d="M328.94,-142.7C345.47,-132.4 365.38,-120 381.37,-110.04"/>
<polygon fill="#8df407" stroke="#8df407" points="328.73,-142.83 317.86,-144.3 324.48,-145.47 320.24,-148.12 320.24,-148.12 320.24,-148.12 324.48,-145.47 322.62,-151.94 328.73,-142.83 328.73,-142.83"/>
<polygon fill="#8df407" stroke="#8df407" points="381.79,-109.78 392.66,-108.31 386.04,-107.14 390.28,-104.49 390.28,-104.49 390.28,-104.49 386.04,-107.14 387.9,-100.68 381.79,-109.78 381.79,-109.78"/>
</g>
<!-- Doctor -->
<g id="node16" class="node">
<title>Doctor</title>
<ellipse fill="none" stroke="black" cx="344.34" cy="-237" rx="36.29" ry="18"/>
<text text-anchor="middle" x="344.34" y="-233.3" font-family="Times New Roman,serif" font-size="14.00">Doctor</text>
</g>
<!-- DoctorsSpecialization -->
<g id="node17" class="node">
<title>DoctorsSpecialization</title>
<ellipse fill="none" stroke="black" cx="90.34" cy="-91" rx="90.18" ry="18"/>
<text text-anchor="middle" x="90.34" y="-87.3" font-family="Times New Roman,serif" font-size="14.00">DoctorsSpecialization</text>
</g>
<!-- Doctor&#45;&gt;DoctorsSpecialization -->
<g id="edge11" class="edge">
<title>Doctor&#45;&gt;DoctorsSpecialization</title>
<path fill="none" stroke="#4b66d5" d="M309.07,-222.28C305.48,-221.09 301.85,-219.97 298.34,-219 211.61,-195.1 160.22,-248.23 99.34,-182 84.03,-165.34 83.1,-138.92 85.22,-119"/>
<ellipse fill="none" stroke="#4b66d5" cx="313.08" cy="-223.67" rx="4" ry="4"/>
<polygon fill="#4b66d5" stroke="#4b66d5" points="85.23,-118.9 91.05,-109.6 85.91,-113.95 86.59,-108.99 86.59,-108.99 86.59,-108.99 85.91,-113.95 82.13,-108.38 85.23,-118.9 85.23,-118.9"/>
</g>
<!-- Screening -->
<g id="node44" class="node">
<title>Screening</title>
<ellipse fill="none" stroke="black" cx="410.34" cy="-164" rx="46.29" ry="18"/>
<text text-anchor="middle" x="410.34" y="-160.3" font-family="Times New Roman,serif" font-size="14.00">Screening</text>
</g>
<!-- Doctor&#45;&gt;Screening -->
<g id="edge10" class="edge">
<title>Doctor&#45;&gt;Screening</title>
<path fill="none" stroke="#96279e" d="M364.57,-214.24C372.54,-205.67 381.68,-195.84 389.68,-187.23"/>
<ellipse fill="none" stroke="#96279e" cx="361.71" cy="-217.31" rx="4" ry="4"/>
<ellipse fill="#96279e" stroke="#96279e" cx="392.55" cy="-184.14" rx="4" ry="4"/>
</g>
<!-- Specialization -->
<g id="node47" class="node">
<title>Specialization</title>
<ellipse fill="none" stroke="black" cx="168.34" cy="-164" rx="60.39" ry="18"/>
<text text-anchor="middle" x="168.34" y="-160.3" font-family="Times New Roman,serif" font-size="14.00">Specialization</text>
</g>
<!-- Doctor&#45;&gt;Specialization -->
<g id="edge12" class="edge">
<title>Doctor&#45;&gt;Specialization</title>
<path fill="none" stroke="#bbb257" d="M307.32,-221.07C279.65,-209.9 241.71,-194.6 212.46,-182.8"/>
<polygon fill="#bbb257" stroke="#bbb257" points="307.57,-221.17 315.16,-229.08 312.21,-223.04 316.84,-224.91 316.84,-224.91 316.84,-224.91 312.21,-223.04 318.53,-220.73 307.57,-221.17 307.57,-221.17"/>
<polygon fill="#bbb257" stroke="#bbb257" points="212.18,-182.68 204.59,-174.77 207.54,-180.81 202.9,-178.94 202.9,-178.94 202.9,-178.94 207.54,-180.81 201.22,-183.12 212.18,-182.68 212.18,-182.68"/>
</g>
<!-- Document -->
<g id="node18" class="node">
<title>Document</title>
<ellipse fill="none" stroke="black" cx="1586.34" cy="-310" rx="48.19" ry="18"/>
<text text-anchor="middle" x="1586.34" y="-306.3" font-family="Times New Roman,serif" font-size="14.00">Document</text>
</g>
<!-- DocumentsPerson -->
<g id="node20" class="node">
<title>DocumentsPerson</title>
<ellipse fill="none" stroke="black" cx="1239.34" cy="-237" rx="77.19" ry="18"/>
<text text-anchor="middle" x="1239.34" y="-233.3" font-family="Times New Roman,serif" font-size="14.00">DocumentsPerson</text>
</g>
<!-- Document&#45;&gt;DocumentsPerson -->
<g id="edge13" class="edge">
<title>Document&#45;&gt;DocumentsPerson</title>
<path fill="none" stroke="#bce263" d="M1543.16,-295.6C1538.52,-294.32 1533.84,-293.09 1529.34,-292 1455.93,-274.27 1370.86,-259.05 1311.93,-249.33"/>
<ellipse fill="none" stroke="#bce263" cx="1547.08" cy="-296.71" rx="4" ry="4"/>
<polygon fill="#bce263" stroke="#bce263" points="1311.84,-249.31 1302.7,-243.26 1306.91,-248.5 1301.97,-247.7 1301.97,-247.7 1301.97,-247.7 1306.91,-248.5 1301.25,-252.14 1311.84,-249.31 1311.84,-249.31"/>
</g>
<!-- DocumentsPartner -->
<g id="node19" class="node">
<title>DocumentsPartner</title>
<ellipse fill="none" stroke="black" cx="1984.34" cy="-310" rx="77.99" ry="18"/>
<text text-anchor="middle" x="1984.34" y="-306.3" font-family="Times New Roman,serif" font-size="14.00">DocumentsPartner</text>
</g>
<!-- Drug -->
<g id="node21" class="node">
<title>Drug</title>
<ellipse fill="none" stroke="black" cx="2325.34" cy="-491" rx="28.7" ry="18"/>
<text text-anchor="middle" x="2325.34" y="-487.3" font-family="Times New Roman,serif" font-size="14.00">Drug</text>
</g>
<!-- DrugsHistoric -->
<g id="node22" class="node">
<title>DrugsHistoric</title>
<ellipse fill="none" stroke="black" cx="2287.34" cy="-310" rx="61.99" ry="18"/>
<text text-anchor="middle" x="2287.34" y="-306.3" font-family="Times New Roman,serif" font-size="14.00">DrugsHistoric</text>
</g>
<!-- Drug&#45;&gt;DrugsHistoric -->
<g id="edge14" class="edge">
<title>Drug&#45;&gt;DrugsHistoric</title>
<path fill="none" stroke="#9fe69a" d="M2318.1,-465.1C2314.03,-450.57 2309.04,-431.83 2305.34,-415 2299.66,-389.09 2294.65,-359.23 2291.36,-338.17"/>
<ellipse fill="none" stroke="#9fe69a" cx="2319.29" cy="-469.28" rx="4" ry="4"/>
<polygon fill="#9fe69a" stroke="#9fe69a" points="2291.32,-337.91 2294.26,-327.34 2290.57,-332.97 2289.81,-328.02 2289.81,-328.02 2289.81,-328.02 2290.57,-332.97 2285.36,-328.7 2291.32,-337.91 2291.32,-337.91"/>
</g>
<!-- NonPathologicalsHistoric -->
<g id="node31" class="node">
<title>NonPathologicalsHistoric</title>
<ellipse fill="none" stroke="black" cx="2417.34" cy="-397" rx="103.18" ry="18"/>
<text text-anchor="middle" x="2417.34" y="-393.3" font-family="Times New Roman,serif" font-size="14.00">NonPathologicalsHistoric</text>
</g>
<!-- Drug&#45;&gt;NonPathologicalsHistoric -->
<g id="edge15" class="edge">
<title>Drug&#45;&gt;NonPathologicalsHistoric</title>
<path fill="none" stroke="#2a0f5d" d="M2347.61,-467.73C2361.32,-454.02 2378.91,-436.43 2393,-422.35"/>
<polygon fill="#2a0f5d" stroke="#2a0f5d" points="2347.19,-468.15 2336.94,-472.04 2343.66,-471.68 2340.12,-475.22 2340.12,-475.22 2340.12,-475.22 2343.66,-471.68 2343.31,-478.4 2347.19,-468.15 2347.19,-468.15"/>
<polygon fill="#2a0f5d" stroke="#2a0f5d" points="2393.34,-422 2403.59,-418.11 2396.88,-418.47 2400.41,-414.93 2400.41,-414.93 2400.41,-414.93 2396.88,-418.47 2397.23,-411.75 2393.34,-422 2393.34,-422"/>
</g>
<!-- Feedback -->
<g id="node23" class="node">
<title>Feedback</title>
<ellipse fill="none" stroke="black" cx="2418.34" cy="-491" rx="46.29" ry="18"/>
<text text-anchor="middle" x="2418.34" y="-487.3" font-family="Times New Roman,serif" font-size="14.00">Feedback</text>
</g>
<!-- Interpret -->
<g id="node24" class="node">
<title>Interpret</title>
<ellipse fill="none" stroke="black" cx="1255.34" cy="-397" rx="41.69" ry="18"/>
<text text-anchor="middle" x="1255.34" y="-393.3" font-family="Times New Roman,serif" font-size="14.00">Interpret</text>
</g>
<!-- Interpret&#45;&gt;Address -->
<g id="edge17" class="edge">
<title>Interpret&#45;&gt;Address</title>
<path fill="none" stroke="#f23354" d="M1294.89,-380.93C1335.35,-365.5 1397.88,-341.67 1438.47,-326.2"/>
<polygon fill="#f23354" stroke="#f23354" points="1294.76,-380.97 1283.81,-380.33 1290.09,-382.76 1285.42,-384.54 1285.42,-384.54 1285.42,-384.54 1290.09,-382.76 1287.02,-388.74 1294.76,-380.97 1294.76,-380.97"/>
<polygon fill="#f23354" stroke="#f23354" points="1438.69,-326.12 1449.63,-326.76 1443.36,-324.33 1448.03,-322.55 1448.03,-322.55 1448.03,-322.55 1443.36,-324.33 1446.43,-318.35 1438.69,-326.12 1438.69,-326.12"/>
</g>
<!-- Interpret&#45;&gt;AddressesInterpret -->
<g id="edge16" class="edge">
<title>Interpret&#45;&gt;AddressesInterpret</title>
<path fill="none" stroke="#099cda" d="M1276.72,-374.11C1288.39,-362.16 1302.87,-347.33 1314.85,-335.05"/>
<ellipse fill="none" stroke="#099cda" cx="1273.75" cy="-377.15" rx="4" ry="4"/>
<polygon fill="#099cda" stroke="#099cda" points="1314.96,-334.94 1325.17,-330.93 1318.46,-331.37 1321.95,-327.79 1321.95,-327.79 1321.95,-327.79 1318.46,-331.37 1318.73,-324.64 1314.96,-334.94 1314.96,-334.94"/>
</g>
<!-- Language -->
<g id="node25" class="node">
<title>Language</title>
<ellipse fill="none" stroke="black" cx="863.34" cy="-310" rx="45.49" ry="18"/>
<text text-anchor="middle" x="863.34" y="-306.3" font-family="Times New Roman,serif" font-size="14.00">Language</text>
</g>
<!-- Interpret&#45;&gt;Language -->
<g id="edge19" class="edge">
<title>Interpret&#45;&gt;Language</title>
<path fill="none" stroke="#ea04b1" d="M1207.2,-387.98C1141.3,-376.62 1019.55,-354.29 917.34,-328 913.8,-327.09 910.15,-326.08 906.5,-325.03"/>
<polygon fill="#ea04b1" stroke="#ea04b1" points="1207.42,-388.02 1216.52,-394.14 1212.35,-388.86 1217.28,-389.71 1217.28,-389.71 1217.28,-389.71 1212.35,-388.86 1218.04,-385.27 1207.42,-388.02 1207.42,-388.02"/>
<polygon fill="#ea04b1" stroke="#ea04b1" points="906.47,-325.02 898.17,-317.86 901.68,-323.6 896.89,-322.17 896.89,-322.17 896.89,-322.17 901.68,-323.6 895.6,-326.48 906.47,-325.02 906.47,-325.02"/>
</g>
<!-- LanguagesInterpret -->
<g id="node26" class="node">
<title>LanguagesInterpret</title>
<ellipse fill="none" stroke="black" cx="1006.34" cy="-310" rx="79.89" ry="18"/>
<text text-anchor="middle" x="1006.34" y="-306.3" font-family="Times New Roman,serif" font-size="14.00">LanguagesInterpret</text>
</g>
<!-- Interpret&#45;&gt;LanguagesInterpret -->
<g id="edge18" class="edge">
<title>Interpret&#45;&gt;LanguagesInterpret</title>
<path fill="none" stroke="#9e9ddb" d="M1216.19,-382.63C1173.55,-368.08 1105.16,-344.73 1058.11,-328.67"/>
<ellipse fill="none" stroke="#9e9ddb" cx="1220.02" cy="-383.94" rx="4" ry="4"/>
<polygon fill="#9e9ddb" stroke="#9e9ddb" points="1057.88,-328.59 1049.87,-321.1 1053.15,-326.98 1048.41,-325.36 1048.41,-325.36 1048.41,-325.36 1053.15,-326.98 1046.96,-329.62 1057.88,-328.59 1057.88,-328.59"/>
</g>
<!-- Phone -->
<g id="node40" class="node">
<title>Phone</title>
<ellipse fill="none" stroke="black" cx="1686.34" cy="-310" rx="33.6" ry="18"/>
<text text-anchor="middle" x="1686.34" y="-306.3" font-family="Times New Roman,serif" font-size="14.00">Phone</text>
</g>
<!-- Interpret&#45;&gt;Phone -->
<g id="edge21" class="edge">
<title>Interpret&#45;&gt;Phone</title>
<path fill="none" stroke="#684649" d="M1305.37,-390.53C1379.98,-381.63 1524.38,-361.57 1643.34,-328 1645.93,-327.27 1648.58,-326.44 1651.23,-325.55"/>
<polygon fill="#684649" stroke="#684649" points="1305.25,-390.54 1294.79,-387.24 1300.28,-391.13 1295.32,-391.71 1295.32,-391.71 1295.32,-391.71 1300.28,-391.13 1295.84,-396.18 1305.25,-390.54 1305.25,-390.54"/>
<polygon fill="#684649" stroke="#684649" points="1651.31,-325.52 1662.24,-326.35 1656.01,-323.82 1660.71,-322.11 1660.71,-322.11 1660.71,-322.11 1656.01,-323.82 1659.18,-317.88 1651.31,-325.52 1651.31,-325.52"/>
</g>
<!-- PhonesInterpret -->
<g id="node41" class="node">
<title>PhonesInterpret</title>
<ellipse fill="none" stroke="black" cx="1172.34" cy="-310" rx="68.49" ry="18"/>
<text text-anchor="middle" x="1172.34" y="-306.3" font-family="Times New Roman,serif" font-size="14.00">PhonesInterpret</text>
</g>
<!-- Interpret&#45;&gt;PhonesInterpret -->
<g id="edge20" class="edge">
<title>Interpret&#45;&gt;PhonesInterpret</title>
<path fill="none" stroke="#793004" d="M1233.93,-374.07C1222.17,-362.03 1207.59,-347.09 1195.56,-334.78"/>
<ellipse fill="none" stroke="#793004" cx="1236.94" cy="-377.15" rx="4" ry="4"/>
<polygon fill="#793004" stroke="#793004" points="1195.44,-334.65 1191.67,-324.35 1191.94,-331.07 1188.45,-327.5 1188.45,-327.5 1188.45,-327.5 1191.94,-331.07 1185.23,-330.64 1195.44,-334.65 1195.44,-334.65"/>
</g>
<!-- LanguagesPerson -->
<g id="node27" class="node">
<title>LanguagesPerson</title>
<ellipse fill="none" stroke="black" cx="932.34" cy="-237" rx="74.99" ry="18"/>
<text text-anchor="middle" x="932.34" y="-233.3" font-family="Times New Roman,serif" font-size="14.00">LanguagesPerson</text>
</g>
<!-- Language&#45;&gt;LanguagesPerson -->
<g id="edge22" class="edge">
<title>Language&#45;&gt;LanguagesPerson</title>
<path fill="none" stroke="#1e432d" d="M884.67,-287.06C892.18,-279.33 900.68,-270.58 908.39,-262.64"/>
<ellipse fill="none" stroke="#1e432d" cx="881.79" cy="-290.02" rx="4" ry="4"/>
<polygon fill="#1e432d" stroke="#1e432d" points="908.82,-262.21 919.01,-258.17 912.3,-258.62 915.78,-255.04 915.78,-255.04 915.78,-255.04 912.3,-258.62 912.56,-251.9 908.82,-262.21 908.82,-262.21"/>
</g>
<!-- Medicine -->
<g id="node28" class="node">
<title>Medicine</title>
<ellipse fill="none" stroke="black" cx="696.34" cy="-237" rx="44.39" ry="18"/>
<text text-anchor="middle" x="696.34" y="-233.3" font-family="Times New Roman,serif" font-size="14.00">Medicine</text>
</g>
<!-- MedicinesHistoric -->
<g id="node29" class="node">
<title>MedicinesHistoric</title>
<ellipse fill="none" stroke="black" cx="625.34" cy="-91" rx="76.89" ry="18"/>
<text text-anchor="middle" x="625.34" y="-87.3" font-family="Times New Roman,serif" font-size="14.00">MedicinesHistoric</text>
</g>
<!-- Medicine&#45;&gt;MedicinesHistoric -->
<g id="edge23" class="edge">
<title>Medicine&#45;&gt;MedicinesHistoric</title>
<path fill="none" stroke="#2caa43" d="M684.46,-211.89C671.69,-186 651.46,-144.98 638.3,-118.28"/>
<ellipse fill="none" stroke="#2caa43" cx="686.29" cy="-215.61" rx="4" ry="4"/>
<polygon fill="#2caa43" stroke="#2caa43" points="638.22,-118.11 637.83,-107.15 636,-113.62 633.79,-109.14 633.79,-109.14 633.79,-109.14 636,-113.62 629.76,-111.13 638.22,-118.11 638.22,-118.11"/>
</g>
<!-- Medicine&#45;&gt;PathologicalsHistoric -->
<g id="edge24" class="edge">
<title>Medicine&#45;&gt;PathologicalsHistoric</title>
<path fill="none" stroke="#9af2d8" d="M727.17,-215.54C740.56,-206.66 756.28,-196.23 769.94,-187.16"/>
<polygon fill="#9af2d8" stroke="#9af2d8" points="726.84,-215.76 716.02,-217.54 722.68,-218.52 718.51,-221.29 718.51,-221.29 718.51,-221.29 722.68,-218.52 721,-225.04 726.84,-215.76 726.84,-215.76"/>
<polygon fill="#9af2d8" stroke="#9af2d8" points="770.25,-186.96 781.07,-185.18 774.42,-184.19 778.58,-181.43 778.58,-181.43 778.58,-181.43 774.42,-184.19 776.09,-177.68 770.25,-186.96 770.25,-186.96"/>
</g>
<!-- Nationality -->
<g id="node30" class="node">
<title>Nationality</title>
<ellipse fill="none" stroke="black" cx="432.34" cy="-397" rx="49.29" ry="18"/>
<text text-anchor="middle" x="432.34" y="-393.3" font-family="Times New Roman,serif" font-size="14.00">Nationality</text>
</g>
<!-- Nationality&#45;&gt;People -->
<g id="edge25" class="edge">
<title>Nationality&#45;&gt;People</title>
<path fill="none" stroke="#465bf0" d="M420.09,-371.78C414.25,-360.23 407.28,-346.46 401.46,-334.95"/>
<ellipse fill="none" stroke="#465bf0" cx="422.04" cy="-375.64" rx="4" ry="4"/>
<ellipse fill="#465bf0" stroke="#465bf0" cx="399.63" cy="-331.33" rx="4" ry="4"/>
<text text-anchor="middle" x="433.34" y="-349.8" font-family="Times New Roman,serif" font-size="14.00">people</text>
</g>
<!-- NonPathologicalsHistoric&#45;&gt;DrugsHistoric -->
<g id="edge26" class="edge">
<title>NonPathologicalsHistoric&#45;&gt;DrugsHistoric</title>
<path fill="none" stroke="#67f0a4" d="M2385.13,-374.94C2365.22,-361.92 2339.75,-345.27 2319.8,-332.22"/>
<ellipse fill="none" stroke="#67f0a4" cx="2388.62" cy="-377.22" rx="4" ry="4"/>
<polygon fill="#67f0a4" stroke="#67f0a4" points="2319.7,-332.16 2313.8,-322.92 2315.52,-329.42 2311.34,-326.69 2311.34,-326.69 2311.34,-326.69 2315.52,-329.42 2308.87,-330.45 2319.7,-332.16 2319.7,-332.16"/>
</g>
<!-- Vaccine -->
<g id="node53" class="node">
<title>Vaccine</title>
<ellipse fill="none" stroke="black" cx="2412.34" cy="-310" rx="40.09" ry="18"/>
<text text-anchor="middle" x="2412.34" y="-306.3" font-family="Times New Roman,serif" font-size="14.00">Vaccine</text>
</g>
<!-- NonPathologicalsHistoric&#45;&gt;Vaccine -->
<g id="edge28" class="edge">
<title>NonPathologicalsHistoric&#45;&gt;Vaccine</title>
<path fill="none" stroke="#365038" d="M2415.74,-368.73C2415.16,-358.96 2414.51,-347.94 2413.94,-338.17"/>
<polygon fill="#365038" stroke="#365038" points="2415.74,-368.82 2411.84,-379.06 2416.04,-373.81 2416.33,-378.8 2416.33,-378.8 2416.33,-378.8 2416.04,-373.81 2420.82,-378.53 2415.74,-368.82 2415.74,-368.82"/>
<polygon fill="#365038" stroke="#365038" points="2413.94,-338.16 2417.84,-327.91 2413.65,-333.17 2413.35,-328.18 2413.35,-328.18 2413.35,-328.18 2413.65,-333.17 2408.86,-328.44 2413.94,-338.16 2413.94,-338.16"/>
</g>
<!-- VaccinesHistoric -->
<g id="node54" class="node">
<title>VaccinesHistoric</title>
<ellipse fill="none" stroke="black" cx="2457.34" cy="-237" rx="72.59" ry="18"/>
<text text-anchor="middle" x="2457.34" y="-233.3" font-family="Times New Roman,serif" font-size="14.00">VaccinesHistoric</text>
</g>
<!-- NonPathologicalsHistoric&#45;&gt;VaccinesHistoric -->
<g id="edge27" class="edge">
<title>NonPathologicalsHistoric&#45;&gt;VaccinesHistoric</title>
<path fill="none" stroke="#dc2df7" d="M2437.4,-372.46C2446.63,-360.09 2456.57,-344.16 2461.34,-328 2467.41,-307.44 2465.84,-283.09 2463.06,-264.9"/>
<ellipse fill="none" stroke="#dc2df7" cx="2434.83" cy="-375.78" rx="4" ry="4"/>
<polygon fill="#dc2df7" stroke="#dc2df7" points="2463.05,-264.84 2465.77,-254.21 2462.19,-259.91 2461.34,-254.98 2461.34,-254.98 2461.34,-254.98 2462.19,-259.91 2456.9,-255.76 2463.05,-264.84 2463.05,-264.84"/>
</g>
<!-- Objective -->
<g id="node32" class="node">
<title>Objective</title>
<ellipse fill="none" stroke="black" cx="520.34" cy="-164" rx="45.49" ry="18"/>
<text text-anchor="middle" x="520.34" y="-160.3" font-family="Times New Roman,serif" font-size="14.00">Objective</text>
</g>
<!-- ObjectivesSoap -->
<g id="node33" class="node">
<title>ObjectivesSoap</title>
<ellipse fill="none" stroke="black" cx="628.34" cy="-18" rx="68.49" ry="18"/>
<text text-anchor="middle" x="628.34" y="-14.3" font-family="Times New Roman,serif" font-size="14.00">ObjectivesSoap</text>
</g>
<!-- Objective&#45;&gt;ObjectivesSoap -->
<g id="edge29" class="edge">
<title>Objective&#45;&gt;ObjectivesSoap</title>
<path fill="none" stroke="#8189cf" d="M520.39,-137.75C521.6,-118.43 525.91,-91.95 539.34,-73 550,-57.96 566.29,-46.34 582.04,-37.79"/>
<ellipse fill="none" stroke="#8189cf" cx="520.22" cy="-141.82" rx="4" ry="4"/>
<polygon fill="#8189cf" stroke="#8189cf" points="582.29,-37.66 593.24,-37.12 586.74,-35.39 591.2,-33.11 591.2,-33.11 591.2,-33.11 586.74,-35.39 589.15,-29.11 582.29,-37.66 582.29,-37.66"/>
</g>
<!-- Objective&#45;&gt;Soap -->
<g id="edge31" class="edge">
<title>Objective&#45;&gt;Soap</title>
<path fill="none" stroke="#8b4bb7" d="M484.27,-144.62C474.99,-139.53 465.15,-133.8 456.34,-128 449.2,-123.29 441.76,-117.78 435.01,-112.5"/>
<polygon fill="#8b4bb7" stroke="#8b4bb7" points="484.5,-144.74 491.17,-153.44 488.9,-147.11 493.3,-149.47 493.3,-149.47 493.3,-149.47 488.9,-147.11 495.44,-145.51 484.5,-144.74 484.5,-144.74"/>
<polygon fill="#8b4bb7" stroke="#8b4bb7" points="434.7,-112.26 429.7,-102.5 430.8,-109.14 426.89,-106.02 426.89,-106.02 426.89,-106.02 430.8,-109.14 424.08,-109.54 434.7,-112.26 434.7,-112.26"/>
</g>
<!-- SubjectivesSoap -->
<g id="node49" class="node">
<title>SubjectivesSoap</title>
<ellipse fill="none" stroke="black" cx="470.34" cy="-18" rx="71.49" ry="18"/>
<text text-anchor="middle" x="470.34" y="-14.3" font-family="Times New Roman,serif" font-size="14.00">SubjectivesSoap</text>
</g>
<!-- Objective&#45;&gt;SubjectivesSoap -->
<g id="edge30" class="edge">
<title>Objective&#45;&gt;SubjectivesSoap</title>
<path fill="none" stroke="#5cfb52" d="M510.32,-138.5C508.95,-134.99 507.59,-131.41 506.34,-128 496.2,-100.2 485.71,-67.98 478.69,-45.82"/>
<ellipse fill="none" stroke="#5cfb52" cx="511.82" cy="-142.27" rx="4" ry="4"/>
<polygon fill="#5cfb52" stroke="#5cfb52" points="478.64,-45.64 479.92,-34.75 477.13,-40.87 475.63,-36.1 475.63,-36.1 475.63,-36.1 477.13,-40.87 471.34,-37.46 478.64,-45.64 478.64,-45.64"/>
</g>
<!-- Partner -->
<g id="node34" class="node">
<title>Partner</title>
<ellipse fill="none" stroke="black" cx="1762.34" cy="-397" rx="36.29" ry="18"/>
<text text-anchor="middle" x="1762.34" y="-393.3" font-family="Times New Roman,serif" font-size="14.00">Partner</text>
</g>
<!-- Partner&#45;&gt;Address -->
<g id="edge35" class="edge">
<title>Partner&#45;&gt;Address</title>
<path fill="none" stroke="#a10142" d="M1721.6,-384.61C1674.98,-371.47 1596.42,-348.96 1529.34,-328 1526.22,-327.03 1523.01,-326 1519.77,-324.96"/>
<polygon fill="#a10142" stroke="#a10142" points="1721.7,-384.64 1730.11,-391.68 1726.51,-386 1731.32,-387.35 1731.32,-387.35 1731.32,-387.35 1726.51,-386 1732.54,-383.02 1721.7,-384.64 1721.7,-384.64"/>
<polygon fill="#a10142" stroke="#a10142" points="1519.62,-324.9 1511.51,-317.52 1514.86,-323.35 1510.11,-321.8 1510.11,-321.8 1510.11,-321.8 1514.86,-323.35 1508.71,-326.07 1519.62,-324.9 1519.62,-324.9"/>
</g>
<!-- Partner&#45;&gt;AddressesPartner -->
<g id="edge34" class="edge">
<title>Partner&#45;&gt;AddressesPartner</title>
<path fill="none" stroke="#bd4fc9" d="M1776.39,-372.58C1783.09,-361.41 1791.13,-348.03 1797.99,-336.59"/>
<ellipse fill="none" stroke="#bd4fc9" cx="1774.23" cy="-376.18" rx="4" ry="4"/>
<polygon fill="#bd4fc9" stroke="#bd4fc9" points="1798.04,-336.5 1807.05,-330.24 1800.62,-332.21 1803.19,-327.92 1803.19,-327.92 1803.19,-327.92 1800.62,-332.21 1799.33,-325.61 1798.04,-336.5 1798.04,-336.5"/>
</g>
<!-- Partner&#45;&gt;Document -->
<g id="edge37" class="edge">
<title>Partner&#45;&gt;Document</title>
<path fill="none" stroke="#e7def1" d="M1727.85,-379.34C1697.91,-364.88 1654.64,-343.99 1623.85,-329.11"/>
<polygon fill="#e7def1" stroke="#e7def1" points="1728.12,-379.47 1735.17,-387.87 1732.62,-381.65 1737.13,-383.82 1737.13,-383.82 1737.13,-383.82 1732.62,-381.65 1739.08,-379.77 1728.12,-379.47 1728.12,-379.47"/>
<polygon fill="#e7def1" stroke="#e7def1" points="1623.72,-329.05 1616.68,-320.65 1619.22,-326.88 1614.72,-324.7 1614.72,-324.7 1614.72,-324.7 1619.22,-326.88 1612.76,-328.76 1623.72,-329.05 1623.72,-329.05"/>
</g>
<!-- Partner&#45;&gt;DocumentsPartner -->
<g id="edge36" class="edge">
<title>Partner&#45;&gt;DocumentsPartner</title>
<path fill="none" stroke="#8faa41" d="M1797.94,-382.37C1835.42,-368.02 1894.66,-345.34 1936.27,-329.41"/>
<ellipse fill="none" stroke="#8faa41" cx="1794.19" cy="-383.8" rx="4" ry="4"/>
<polygon fill="#8faa41" stroke="#8faa41" points="1936.32,-329.39 1947.26,-330.02 1940.99,-327.6 1945.65,-325.81 1945.65,-325.81 1945.65,-325.81 1940.99,-327.6 1944.05,-321.61 1936.32,-329.39 1936.32,-329.39"/>
</g>
<!-- PartnersPhone -->
<g id="node35" class="node">
<title>PartnersPhone</title>
<ellipse fill="none" stroke="black" cx="2144.34" cy="-310" rx="63.89" ry="18"/>
<text text-anchor="middle" x="2144.34" y="-306.3" font-family="Times New Roman,serif" font-size="14.00">PartnersPhone</text>
</g>
<!-- Partner&#45;&gt;PartnersPhone -->
<g id="edge32" class="edge">
<title>Partner&#45;&gt;PartnersPhone</title>
<path fill="none" stroke="#c55df9" d="M1803.29,-387.16C1862.49,-374.33 1975.41,-349.73 2071.34,-328 2076.37,-326.86 2081.59,-325.67 2086.82,-324.46"/>
<ellipse fill="none" stroke="#c55df9" cx="1799.21" cy="-388.04" rx="4" ry="4"/>
<polygon fill="#c55df9" stroke="#c55df9" points="2087.1,-324.4 2097.86,-326.53 2091.98,-323.27 2096.85,-322.15 2096.85,-322.15 2096.85,-322.15 2091.98,-323.27 2095.83,-317.76 2087.1,-324.4 2087.1,-324.4"/>
</g>
<!-- Partner&#45;&gt;Phone -->
<g id="edge33" class="edge">
<title>Partner&#45;&gt;Phone</title>
<path fill="none" stroke="#f606ac" d="M1741.19,-372.34C1730.59,-360.48 1717.79,-346.17 1707.22,-334.35"/>
<polygon fill="#f606ac" stroke="#f606ac" points="1741.38,-372.56 1744.69,-383.01 1744.71,-376.28 1748.05,-380.01 1748.05,-380.01 1748.05,-380.01 1744.71,-376.28 1751.4,-377.01 1741.38,-372.56 1741.38,-372.56"/>
<polygon fill="#f606ac" stroke="#f606ac" points="1706.98,-334.08 1703.67,-323.63 1703.65,-330.36 1700.32,-326.63 1700.32,-326.63 1700.32,-326.63 1703.65,-330.36 1696.96,-329.63 1706.98,-334.08 1706.98,-334.08"/>
</g>
<!-- PathologicalsHistoric&#45;&gt;AllergiesHistoric -->
<g id="edge38" class="edge">
<title>PathologicalsHistoric&#45;&gt;AllergiesHistoric</title>
<path fill="none" stroke="#9fa69d" d="M893.25,-156.5C942.62,-151.48 1004.57,-142.8 1058.34,-128 1073.41,-123.85 1089.33,-117.64 1103.26,-111.54"/>
<ellipse fill="none" stroke="#9fa69d" cx="889.11" cy="-156.91" rx="4" ry="4"/>
<polygon fill="#9fa69d" stroke="#9fa69d" points="1103.44,-111.47 1114.41,-111.47 1108,-109.42 1112.56,-107.37 1112.56,-107.37 1112.56,-107.37 1108,-109.42 1110.72,-103.26 1103.44,-111.47 1103.44,-111.47"/>
</g>
<!-- PathologicalsHistoric&#45;&gt;MedicinesHistoric -->
<g id="edge41" class="edge">
<title>PathologicalsHistoric&#45;&gt;MedicinesHistoric</title>
<path fill="none" stroke="#494766" d="M757.46,-144.7C731.2,-134.23 698.33,-121.12 671.95,-110.59"/>
<ellipse fill="none" stroke="#494766" cx="761.44" cy="-146.29" rx="4" ry="4"/>
<polygon fill="#494766" stroke="#494766" points="671.84,-110.55 664.22,-102.66 667.19,-108.69 662.55,-106.84 662.55,-106.84 662.55,-106.84 667.19,-108.69 660.88,-111.02 671.84,-110.55 671.84,-110.55"/>
</g>
<!-- RespiratoriesHistoric -->
<g id="node42" class="node">
<title>RespiratoriesHistoric</title>
<ellipse fill="none" stroke="black" cx="1023.34" cy="-18" rx="87.18" ry="18"/>
<text text-anchor="middle" x="1023.34" y="-14.3" font-family="Times New Roman,serif" font-size="14.00">RespiratoriesHistoric</text>
</g>
<!-- PathologicalsHistoric&#45;&gt;RespiratoriesHistoric -->
<g id="edge42" class="edge">
<title>PathologicalsHistoric&#45;&gt;RespiratoriesHistoric</title>
<path fill="none" stroke="#82c564" d="M886.67,-153.46C942.19,-145.2 1008.03,-131.03 1025.34,-109 1039.09,-91.5 1036.93,-65.62 1032.3,-46.1"/>
<ellipse fill="none" stroke="#82c564" cx="882.52" cy="-154.07" rx="4" ry="4"/>
<polygon fill="#82c564" stroke="#82c564" points="1032.25,-45.93 1033.98,-35.1 1030.95,-41.1 1029.64,-36.27 1029.64,-36.27 1029.64,-36.27 1030.95,-41.1 1025.3,-37.45 1032.25,-45.93 1032.25,-45.93"/>
</g>
<!-- RespiratoryDisease -->
<g id="node43" class="node">
<title>RespiratoryDisease</title>
<ellipse fill="none" stroke="black" cx="935.34" cy="-91" rx="81.49" ry="18"/>
<text text-anchor="middle" x="935.34" y="-87.3" font-family="Times New Roman,serif" font-size="14.00">RespiratoryDisease</text>
</g>
<!-- PathologicalsHistoric&#45;&gt;RespiratoryDisease -->
<g id="edge43" class="edge">
<title>PathologicalsHistoric&#45;&gt;RespiratoryDisease</title>
<path fill="none" stroke="#d4f341" d="M842.33,-142.03C859.51,-132.79 879.65,-121.95 896.79,-112.74"/>
<polygon fill="#d4f341" stroke="#d4f341" points="842.1,-142.15 831.16,-142.93 837.7,-144.52 833.29,-146.89 833.29,-146.89 833.29,-146.89 837.7,-144.52 835.43,-150.85 842.1,-142.15 842.1,-142.15"/>
<polygon fill="#d4f341" stroke="#d4f341" points="897.16,-112.54 908.09,-111.77 901.56,-110.17 905.96,-107.8 905.96,-107.8 905.96,-107.8 901.56,-110.17 903.83,-103.84 897.16,-112.54 897.16,-112.54"/>
</g>
<!-- SurgeriesHistoric -->
<g id="node50" class="node">
<title>SurgeriesHistoric</title>
<ellipse fill="none" stroke="black" cx="807.34" cy="-18" rx="73.39" ry="18"/>
<text text-anchor="middle" x="807.34" y="-14.3" font-family="Times New Roman,serif" font-size="14.00">SurgeriesHistoric</text>
</g>
<!-- PathologicalsHistoric&#45;&gt;SurgeriesHistoric -->
<g id="edge39" class="edge">
<title>PathologicalsHistoric&#45;&gt;SurgeriesHistoric</title>
<path fill="none" stroke="#736cd1" d="M805.6,-137.76C806.31,-128.7 806.99,-118.4 807.34,-109 808.12,-87.95 808.08,-64.12 807.87,-46.27"/>
<ellipse fill="none" stroke="#736cd1" cx="805.25" cy="-142.01" rx="4" ry="4"/>
<polygon fill="#736cd1" stroke="#736cd1" points="807.87,-46.26 812.22,-36.2 807.79,-41.26 807.72,-36.26 807.72,-36.26 807.72,-36.26 807.79,-41.26 803.22,-36.33 807.87,-46.26 807.87,-46.26"/>
</g>
<!-- Surgery -->
<g id="node51" class="node">
<title>Surgery</title>
<ellipse fill="none" stroke="black" cx="759.34" cy="-91" rx="38.99" ry="18"/>
<text text-anchor="middle" x="759.34" y="-87.3" font-family="Times New Roman,serif" font-size="14.00">Surgery</text>
</g>
<!-- PathologicalsHistoric&#45;&gt;Surgery -->
<g id="edge40" class="edge">
<title>PathologicalsHistoric&#45;&gt;Surgery</title>
<path fill="none" stroke="#1a750f" d="M787.28,-137.08C783.31,-130.68 779.06,-123.82 775.11,-117.44"/>
<polygon fill="#1a750f" stroke="#1a750f" points="787.42,-137.31 788.87,-148.18 790.06,-141.56 792.69,-145.81 792.69,-145.81 792.69,-145.81 790.06,-141.56 796.52,-143.44 787.42,-137.31 787.42,-137.31"/>
<polygon fill="#1a750f" stroke="#1a750f" points="774.86,-117.04 773.42,-106.17 772.23,-112.79 769.59,-108.54 769.59,-108.54 769.59,-108.54 772.23,-112.79 765.77,-110.91 774.86,-117.04 774.86,-117.04"/>
</g>
<!-- Patient -->
<g id="node37" class="node">
<title>Patient</title>
<ellipse fill="none" stroke="black" cx="433.34" cy="-237" rx="35.19" ry="18"/>
<text text-anchor="middle" x="433.34" y="-233.3" font-family="Times New Roman,serif" font-size="14.00">Patient</text>
</g>
<!-- Patient&#45;&gt;PathologicalsHistoric -->
<g id="edge44" class="edge">
<title>Patient&#45;&gt;PathologicalsHistoric</title>
<path fill="none" stroke="#eb4772" d="M473.45,-228.3C535.69,-216.36 656.33,-193.21 733.2,-178.46"/>
<ellipse fill="none" stroke="#eb4772" cx="469.46" cy="-229.07" rx="4" ry="4"/>
<ellipse fill="#eb4772" stroke="#eb4772" cx="737.5" cy="-177.64" rx="4" ry="4"/>
</g>
<!-- Patient&#45;&gt;Screening -->
<g id="edge45" class="edge">
<title>Patient&#45;&gt;Screening</title>
<path fill="none" stroke="#30fb84" d="M425.38,-211.43C423.14,-204.51 420.7,-196.97 418.45,-190.02"/>
<ellipse fill="none" stroke="#30fb84" cx="426.66" cy="-215.37" rx="4" ry="4"/>
<ellipse fill="#30fb84" stroke="#30fb84" cx="417.15" cy="-186" rx="4" ry="4"/>
</g>
<!-- People&#45;&gt;Assistant -->
<g id="edge46" class="edge">
<title>People&#45;&gt;Assistant</title>
<path fill="none" stroke="#b579de" d="M357.35,-293.22C334.35,-281.89 303.38,-266.61 279.83,-255"/>
<ellipse fill="none" stroke="#b579de" cx="361" cy="-295.03" rx="4" ry="4"/>
<ellipse fill="#b579de" stroke="#b579de" cx="276.05" cy="-253.14" rx="4" ry="4"/>
</g>
<!-- People&#45;&gt;Doctor -->
<g id="edge48" class="edge">
<title>People&#45;&gt;Doctor</title>
<path fill="none" stroke="#f4691b" d="M374.6,-285.73C369.62,-277.89 364.07,-269.13 359.1,-261.28"/>
<ellipse fill="none" stroke="#f4691b" cx="376.76" cy="-289.15" rx="4" ry="4"/>
<ellipse fill="#f4691b" stroke="#f4691b" cx="356.86" cy="-257.76" rx="4" ry="4"/>
</g>
<!-- People&#45;&gt;DocumentsPerson -->
<g id="edge49" class="edge">
<title>People&#45;&gt;DocumentsPerson</title>
<path fill="none" stroke="#4bbd3b" d="M432.48,-305.4C567.11,-294.15 981.02,-259.58 1157.86,-244.81"/>
<ellipse fill="none" stroke="#4bbd3b" cx="428.23" cy="-305.75" rx="4" ry="4"/>
<polygon fill="#4bbd3b" stroke="#4bbd3b" points="1157.92,-244.8 1168.26,-248.45 1162.91,-244.38 1167.89,-243.97 1167.89,-243.97 1167.89,-243.97 1162.91,-244.38 1167.51,-239.48 1157.92,-244.8 1157.92,-244.8"/>
</g>
<!-- People&#45;&gt;Patient -->
<g id="edge47" class="edge">
<title>People&#45;&gt;Patient</title>
<path fill="none" stroke="#193885" d="M403.94,-285.44C408.77,-277.64 414.14,-268.98 418.96,-261.21"/>
<ellipse fill="none" stroke="#193885" cx="401.65" cy="-289.13" rx="4" ry="4"/>
<ellipse fill="#193885" stroke="#193885" cx="421.09" cy="-257.78" rx="4" ry="4"/>
</g>
<!-- PeoplePhone -->
<g id="node39" class="node">
<title>PeoplePhone</title>
<ellipse fill="none" stroke="black" cx="1686.34" cy="-237" rx="58.49" ry="18"/>
<text text-anchor="middle" x="1686.34" y="-233.3" font-family="Times New Roman,serif" font-size="14.00">PeoplePhone</text>
</g>
<!-- Phone&#45;&gt;PeoplePhone -->
<g id="edge50" class="edge">
<title>Phone&#45;&gt;PeoplePhone</title>
<path fill="none" stroke="#93693b" d="M1686.34,-283.79C1686.34,-277.83 1686.34,-271.45 1686.34,-265.4"/>
<ellipse fill="none" stroke="#93693b" cx="1686.34" cy="-287.81" rx="4" ry="4"/>
<polygon fill="#93693b" stroke="#93693b" points="1686.34,-265.03 1690.84,-255.03 1686.34,-260.03 1686.34,-255.03 1686.34,-255.03 1686.34,-255.03 1686.34,-260.03 1681.84,-255.03 1686.34,-265.03 1686.34,-265.03"/>
</g>
<!-- RespiratoryDisease&#45;&gt;RespiratoriesHistoric -->
<g id="edge51" class="edge">
<title>RespiratoryDisease&#45;&gt;RespiratoriesHistoric</title>
<path fill="none" stroke="#0744a6" d="M962.31,-68.24C972.58,-59.96 984.31,-50.49 994.72,-42.09"/>
<ellipse fill="none" stroke="#0744a6" cx="958.87" cy="-71.02" rx="4" ry="4"/>
<polygon fill="#0744a6" stroke="#0744a6" points="994.95,-41.9 1005.56,-39.13 998.85,-38.76 1002.74,-35.62 1002.74,-35.62 1002.74,-35.62 998.85,-38.76 999.91,-32.12 994.95,-41.9 994.95,-41.9"/>
</g>
<!-- Screening&#45;&gt;Soap -->
<g id="edge52" class="edge">
<title>Screening&#45;&gt;Soap</title>
<path fill="none" stroke="#d5f291" d="M410.34,-137.79C410.34,-131.09 410.34,-123.85 410.34,-117.15"/>
<ellipse fill="none" stroke="#d5f291" cx="410.34" cy="-141.81" rx="4" ry="4"/>
<ellipse fill="#d5f291" stroke="#d5f291" cx="410.34" cy="-113.03" rx="4" ry="4"/>
</g>
<!-- Service -->
<g id="node45" class="node">
<title>Service</title>
<ellipse fill="none" stroke="black" cx="2520.34" cy="-491" rx="37.89" ry="18"/>
<text text-anchor="middle" x="2520.34" y="-487.3" font-family="Times New Roman,serif" font-size="14.00">Service</text>
</g>
<!-- Soap&#45;&gt;DiagnosticsSoap -->
<g id="edge56" class="edge">
<title>Soap&#45;&gt;DiagnosticsSoap</title>
<path fill="none" stroke="#653a58" d="M377.02,-79.05C342.04,-67.55 286.6,-49.33 245.96,-35.97"/>
<ellipse fill="none" stroke="#653a58" cx="380.92" cy="-80.33" rx="4" ry="4"/>
<polygon fill="#653a58" stroke="#653a58" points="245.73,-35.89 237.63,-28.49 240.98,-34.33 236.23,-32.77 236.23,-32.77 236.23,-32.77 240.98,-34.33 234.82,-37.04 245.73,-35.89 245.73,-35.89"/>
</g>
<!-- Soap&#45;&gt;ObjectivesSoap -->
<g id="edge53" class="edge">
<title>Soap&#45;&gt;ObjectivesSoap</title>
<path fill="none" stroke="#7e1304" d="M442.62,-77.68C461.89,-70.48 486.89,-61.37 509.34,-54 530.18,-47.16 553.27,-40.22 573.52,-34.34"/>
<ellipse fill="none" stroke="#7e1304" cx="438.75" cy="-79.13" rx="4" ry="4"/>
<polygon fill="#7e1304" stroke="#7e1304" points="573.6,-34.32 584.46,-35.88 578.41,-32.94 583.21,-31.55 583.21,-31.55 583.21,-31.55 578.41,-32.94 581.97,-27.23 573.6,-34.32 573.6,-34.32"/>
</g>
<!-- Subjective -->
<g id="node48" class="node">
<title>Subjective</title>
<ellipse fill="none" stroke="black" cx="332.34" cy="-18" rx="48.19" ry="18"/>
<text text-anchor="middle" x="332.34" y="-14.3" font-family="Times New Roman,serif" font-size="14.00">Subjective</text>
</g>
<!-- Soap&#45;&gt;Subjective -->
<g id="edge55" class="edge">
<title>Soap&#45;&gt;Subjective</title>
<path fill="none" stroke="#987ac4" d="M387.09,-68.83C377.73,-60.31 366.91,-50.47 357.38,-41.79"/>
<polygon fill="#987ac4" stroke="#987ac4" points="387.16,-68.9 391.53,-78.96 390.86,-72.27 394.56,-75.63 394.56,-75.63 394.56,-75.63 390.86,-72.27 397.59,-72.3 387.16,-68.9 387.16,-68.9"/>
<polygon fill="#987ac4" stroke="#987ac4" points="357.13,-41.56 352.76,-31.5 353.43,-38.19 349.73,-34.83 349.73,-34.83 349.73,-34.83 353.43,-38.19 346.7,-38.16 357.13,-41.56 357.13,-41.56"/>
</g>
<!-- Soap&#45;&gt;SubjectivesSoap -->
<g id="edge54" class="edge">
<title>Soap&#45;&gt;SubjectivesSoap</title>
<path fill="none" stroke="#f84736" d="M428.61,-68.38C435.23,-60.55 442.75,-51.65 449.57,-43.58"/>
<ellipse fill="none" stroke="#f84736" cx="425.94" cy="-71.54" rx="4" ry="4"/>
<polygon fill="#f84736" stroke="#f84736" points="449.63,-43.5 459.53,-38.77 452.86,-39.68 456.09,-35.87 456.09,-35.87 456.09,-35.87 452.86,-39.68 452.65,-32.96 449.63,-43.5 449.63,-43.5"/>
</g>
<!-- Specialization&#45;&gt;DoctorsSpecialization -->
<g id="edge57" class="edge">
<title>Specialization&#45;&gt;DoctorsSpecialization</title>
<path fill="none" stroke="#210f06" d="M144.16,-140.99C135.37,-132.98 125.39,-123.9 116.43,-115.75"/>
<ellipse fill="none" stroke="#210f06" cx="147.29" cy="-143.84" rx="4" ry="4"/>
<polygon fill="#210f06" stroke="#210f06" points="116.27,-115.6 111.91,-105.54 112.57,-112.24 108.88,-108.87 108.88,-108.87 108.88,-108.87 112.57,-112.24 105.85,-112.2 116.27,-115.6 116.27,-115.6"/>
</g>
<!-- Surgery&#45;&gt;SurgeriesHistoric -->
<g id="edge58" class="edge">
<title>Surgery&#45;&gt;SurgeriesHistoric</title>
<path fill="none" stroke="#d3bead" d="M775,-66.83C779.8,-59.74 785.11,-51.89 790.01,-44.64"/>
<ellipse fill="none" stroke="#d3bead" cx="772.72" cy="-70.22" rx="4" ry="4"/>
<polygon fill="#d3bead" stroke="#d3bead" points="790.34,-44.16 799.66,-38.39 793.14,-40.01 795.94,-35.87 795.94,-35.87 795.94,-35.87 793.14,-40.01 792.21,-33.35 790.34,-44.16 790.34,-44.16"/>
</g>
<!-- User -->
<g id="node52" class="node">
<title>User</title>
<ellipse fill="none" stroke="black" cx="322.34" cy="-491" rx="27.9" ry="18"/>
<text text-anchor="middle" x="322.34" y="-487.3" font-family="Times New Roman,serif" font-size="14.00">User</text>
</g>
<!-- User&#45;&gt;Account -->
<g id="edge59" class="edge">
<title>User&#45;&gt;Account</title>
<path fill="none" stroke="#87a722" d="M322.34,-464.45C322.34,-451.7 322.34,-436.32 322.34,-423.57"/>
<ellipse fill="none" stroke="#87a722" cx="322.34" cy="-468.7" rx="4" ry="4"/>
<ellipse fill="#87a722" stroke="#87a722" cx="322.34" cy="-419.23" rx="4" ry="4"/>
</g>
<!-- Vaccine&#45;&gt;VaccinesHistoric -->
<g id="edge60" class="edge">
<title>Vaccine&#45;&gt;VaccinesHistoric</title>
<path fill="none" stroke="#a012b7" d="M2427.21,-285.54C2431.68,-278.49 2436.6,-270.73 2441.15,-263.55"/>
<ellipse fill="none" stroke="#a012b7" cx="2424.92" cy="-289.15" rx="4" ry="4"/>
<polygon fill="#a012b7" stroke="#a012b7" points="2441.3,-263.32 2450.45,-257.28 2443.97,-259.09 2446.65,-254.87 2446.65,-254.87 2446.65,-254.87 2443.97,-259.09 2442.85,-252.46 2441.3,-263.32 2441.3,-263.32"/>
</g>
</g>
</svg>
